<svg width="17" height="16" viewBox="0 0 17 16" fill="none" xmlns="http://www.w3.org/2000/svg">
<path d="M12.1275 1.33057H5.80068C5.02962 1.33057 4.64442 1.33057 4.33307 1.43901C4.03953 1.54309 3.77394 1.71344 3.55691 1.93681C3.33988 2.16019 3.17726 2.43058 3.08168 2.72699C2.97656 3.04765 2.97656 3.44416 2.97656 4.23784V13.5544C2.97656 14.1252 3.63186 14.4286 4.04633 14.0494C4.16261 13.9419 4.31512 13.8823 4.47344 13.8823C4.63176 13.8823 4.78427 13.9419 4.90055 14.0494L5.22188 14.3434C5.4256 14.5318 5.69286 14.6365 5.97032 14.6365C6.24779 14.6365 6.51505 14.5318 6.71876 14.3434C6.92248 14.1551 7.18974 14.0504 7.4672 14.0504C7.74467 14.0504 8.01193 14.1551 8.21564 14.3434C8.41936 14.5318 8.68662 14.6365 8.96408 14.6365C9.24155 14.6365 9.50881 14.5318 9.71252 14.3434C9.91624 14.1551 10.1835 14.0504 10.461 14.0504C10.7384 14.0504 11.0057 14.1551 11.2094 14.3434C11.4131 14.5318 11.6804 14.6365 11.9578 14.6365C12.2353 14.6365 12.5026 14.5318 12.7063 14.3434L13.0276 14.0494C13.1439 13.9419 13.2964 13.8823 13.4547 13.8823C13.613 13.8823 13.7656 13.9419 13.8818 14.0494C14.2963 14.4286 14.9516 14.1252 14.9516 13.5544V4.23784C14.9516 3.44416 14.9516 3.04699 14.8465 2.72765C14.751 2.4311 14.5885 2.16055 14.3714 1.93705C14.1544 1.71355 13.8887 1.54312 13.5951 1.43901C13.2837 1.33057 12.8985 1.33057 12.1275 1.33057Z" stroke="#FE2802" stroke-width="0.99792"/>
<path d="M7.30078 6.91894L8.25147 7.98339L10.6272 5.32227" fill="#FE2802"/>
<path d="M7.30078 6.91894L8.25147 7.98339L10.6272 5.32227" stroke="#FE2802" stroke-width="0.99792" stroke-linecap="round" stroke-linejoin="round"/>
<path d="M5.96875 10.312H11.9563" stroke="#FE2802" stroke-width="0.99792" stroke-linecap="round"/>
</svg>
