<svg width="202" height="273" viewBox="0 0 202 273" fill="none" xmlns="http://www.w3.org/2000/svg">
<path d="M51.3594 21L123.572 90.2146L102.649 112.671C82.636 94.3549 51.4023 65.7704 51.4023 65.7704L51.3594 21Z" fill="#EB1C24"/>
<path d="M29.8653 138C29.8653 138 76.3234 93.0071 75.6627 87.7535C75.002 82.4999 102.867 112.499 102.867 112.499L29.8652 184L29.8653 138Z" fill="#EB1C24"/>
<path d="M103.852 0L197.396 93.1948L177.399 114.254C151.031 90.1226 102.804 43.6451 102.804 43.6451L103.852 0Z" fill="#231F20"/>
<path d="M43.9708 202C43.9708 202 148.808 97.2732 151.002 88.9999C153.196 80.7266 177.502 114 177.502 114L26.4712 264L19.4728 270.5L19.4714 264L19.4712 225L43.9708 202Z" fill="#231F20"/>
</svg>
