<svg width="25" height="24" viewBox="0 0 25 24" fill="none" xmlns="http://www.w3.org/2000/svg">
<path d="M9.01953 5.4V9H5.41953V5.4H9.01953ZM10.8195 3.6H3.61953V10.8H10.8195V3.6ZM9.01953 15V18.6H5.41953V15H9.01953ZM10.8195 13.2H3.61953V20.4H10.8195V13.2ZM18.6195 5.4V9H15.0195V5.4H18.6195ZM20.4195 3.6H13.2195V10.8H20.4195V3.6ZM13.2195 13.2H15.0195V15H13.2195V13.2ZM15.0195 15H16.8195V16.8H15.0195V15ZM16.8195 13.2H18.6195V15H16.8195V13.2ZM13.2195 16.8H15.0195V18.6H13.2195V16.8ZM15.0195 18.6H16.8195V20.4H15.0195V18.6ZM16.8195 16.8H18.6195V18.6H16.8195V16.8ZM18.6195 15H20.4195V16.8H18.6195V15ZM18.6195 18.6H20.4195V20.4H18.6195V18.6ZM24.0195 6H21.6195V2.4H18.0195V0H24.0195V6ZM24.0195 24V18H21.6195V21.6H18.0195V24H24.0195ZM0.0195312 24H6.01953V21.6H2.41953V18H0.0195312V24ZM0.0195312 0V6H2.41953V2.4H6.01953V0H0.0195312Z" fill="#FE2802"/>
</svg>
