<svg width="24" height="24" viewBox="0 0 24 24" fill="none" xmlns="http://www.w3.org/2000/svg">
<path fill-rule="evenodd" clip-rule="evenodd" d="M3.6 8.83325C3.6 6.49052 4.485 4.24375 6.0603 2.5872C7.63561 0.930643 9.77218 0 12 0C14.2278 0 16.3644 0.930643 17.9397 2.5872C19.515 4.24375 20.4 6.49052 20.4 8.83325V10.1393C22.4352 10.4459 24 12.287 24 14.5118V14.8272C23.9998 15.3744 23.8956 15.916 23.6933 16.4202C23.491 16.9243 23.1949 17.3808 22.8223 17.7627C22.4497 18.1447 22.0082 18.4444 21.5237 18.6441C21.0393 18.8439 20.5218 18.9397 20.0016 18.9259C19.1136 21.6011 16.8552 23.4043 14.418 23.8611C13.854 24.0782 13.1868 23.976 12.6 23.976C12.1226 23.976 11.6648 23.7765 11.3272 23.4216C10.9896 23.0666 10.8 22.5851 10.8 22.0831C10.8 21.5811 10.9896 21.0997 11.3272 20.7447C11.6648 20.3897 12.1226 20.1903 12.6 20.1903H13.8C14.0818 20.1902 14.3596 20.2597 14.6112 20.3932C14.8628 20.5267 15.081 20.7204 15.2484 20.9588C16.8036 20.1802 18 18.5359 18 16.4046V8.83325C18 7.15987 17.3679 5.55504 16.2426 4.37178C15.1174 3.18853 13.5913 2.52378 12 2.52378C10.4087 2.52378 8.88258 3.18853 7.75736 4.37178C6.63214 5.55504 6 7.15987 6 8.83325V16.7201C6 17.3058 5.77875 17.8674 5.38492 18.2816C4.9911 18.6957 4.45695 18.9284 3.9 18.9284C2.86566 18.9284 1.87368 18.4963 1.14228 17.7272C0.410892 16.9581 1.38491e-07 15.9149 1.38491e-07 14.8272V14.5118C-0.000259141 13.4495 0.363551 12.4228 1.02475 11.6197C1.68594 10.8166 2.60022 10.2911 3.6 10.1393V8.83325ZM3.6 12.7262C3.24891 12.8567 2.94495 13.0985 2.73003 13.4183C2.51511 13.7381 2.3998 14.1202 2.4 14.5118V14.8272C2.4 15.5907 2.916 16.2279 3.6 16.3731V12.7262ZM20.4 12.7262V16.3731C21.084 16.2267 21.6 15.5907 21.6 14.8272V14.5118C21.6002 14.1202 21.4849 13.7381 21.27 13.4183C21.055 13.0985 20.7511 12.8567 20.4 12.7262Z" fill="#2B2B2B"/>
</svg>
