<svg width="25" height="28" viewBox="0 0 25 28" fill="none" xmlns="http://www.w3.org/2000/svg">
<path d="M22.5 2.6665L20.5 0.666504L18.5 2.6665L16.5 0.666504L14.5 2.6665L12.5 0.666504L10.5 2.6665L8.5 0.666504L6.5 2.6665L4.5 0.666504V19.3332H0.5V23.3332C0.5 25.5465 2.28667 27.3332 4.5 27.3332H20.5C22.7133 27.3332 24.5 25.5465 24.5 23.3332V0.666504L22.5 2.6665ZM16.5 24.6665H4.5C3.76667 24.6665 3.16667 24.0665 3.16667 23.3332V21.9998H16.5V24.6665ZM21.8333 23.3332C21.8333 24.0665 21.2333 24.6665 20.5 24.6665C19.7667 24.6665 19.1667 24.0665 19.1667 23.3332V19.3332H7.16667V4.6665H21.8333V23.3332Z" fill="#FE2802"/>
<path d="M16.5 7.33301H8.5V9.99967H16.5V7.33301Z" fill="#FE2802"/>
<path d="M20.4997 7.33301H17.833V9.99967H20.4997V7.33301Z" fill="#FE2802"/>
<path d="M16.5 11.333H8.5V13.9997H16.5V11.333Z" fill="#FE2802"/>
<path d="M20.4997 11.333H17.833V13.9997H20.4997V11.333Z" fill="#FE2802"/>
</svg>
