<svg width="14" height="12" viewBox="0 0 14 12" fill="none" xmlns="http://www.w3.org/2000/svg">
<path d="M1.4 11.7C1.015 11.7 0.685301 11.5628 0.410901 11.2884C0.136501 11.014 -0.000465478 10.6845 1.18846e-06 10.3V1.9C1.18846e-06 1.515 0.137201 1.1853 0.411601 0.910901C0.686001 0.636501 1.01547 0.499535 1.4 0.500001H12.6C12.985 0.500001 13.3147 0.637201 13.5891 0.911601C13.8635 1.186 14.0005 1.51547 14 1.9V10.3C14 10.685 13.8628 11.0147 13.5884 11.2891C13.314 11.5635 12.9845 11.7005 12.6 11.7H1.4ZM7 6.8L1.4 3.3V10.3H12.6V3.3L7 6.8ZM7 5.4L12.6 1.9H1.4L7 5.4ZM1.4 3.3V1.9V10.3V3.3Z" fill="#FE2802"/>
</svg>
