<svg width="15" height="15" viewBox="0 0 15 15" fill="none" xmlns="http://www.w3.org/2000/svg">
<g clip-path="url(#clip0_1296_4266)">
<path d="M3.4375 10.3125C3.76902 10.3125 4.08696 10.4442 4.32138 10.6786C4.5558 10.913 4.6875 11.231 4.6875 11.5625C4.6875 11.894 4.5558 12.212 4.32138 12.4464C4.08696 12.6808 3.76902 12.8125 3.4375 12.8125C3.10598 12.8125 2.78804 12.6808 2.55362 12.4464C2.3192 12.212 2.1875 11.894 2.1875 11.5625C2.1875 11.231 2.3192 10.913 2.55362 10.6786C2.78804 10.4442 3.10598 10.3125 3.4375 10.3125ZM7.5 10.3125C7.83152 10.3125 8.14946 10.4442 8.38388 10.6786C8.6183 10.913 8.75 11.231 8.75 11.5625C8.75 11.894 8.6183 12.212 8.38388 12.4464C8.14946 12.6808 7.83152 12.8125 7.5 12.8125C7.16848 12.8125 6.85054 12.6808 6.61612 12.4464C6.3817 12.212 6.25 11.894 6.25 11.5625C6.25 11.231 6.3817 10.913 6.61612 10.6786C6.85054 10.4442 7.16848 10.3125 7.5 10.3125ZM11.5625 10.3125C11.894 10.3125 12.212 10.4442 12.4464 10.6786C12.6808 10.913 12.8125 11.231 12.8125 11.5625C12.8125 11.894 12.6808 12.212 12.4464 12.4464C12.212 12.6808 11.894 12.8125 11.5625 12.8125C11.231 12.8125 10.913 12.6808 10.6786 12.4464C10.4442 12.212 10.3125 11.894 10.3125 11.5625C10.3125 11.231 10.4442 10.913 10.6786 10.6786C10.913 10.4442 11.231 10.3125 11.5625 10.3125ZM3.4375 6.25C3.76902 6.25 4.08696 6.3817 4.32138 6.61612C4.5558 6.85054 4.6875 7.16848 4.6875 7.5C4.6875 7.83152 4.5558 8.14946 4.32138 8.38388C4.08696 8.6183 3.76902 8.75 3.4375 8.75C3.10598 8.75 2.78804 8.6183 2.55362 8.38388C2.3192 8.14946 2.1875 7.83152 2.1875 7.5C2.1875 7.16848 2.3192 6.85054 2.55362 6.61612C2.78804 6.3817 3.10598 6.25 3.4375 6.25ZM7.5 6.25C7.83152 6.25 8.14946 6.3817 8.38388 6.61612C8.6183 6.85054 8.75 7.16848 8.75 7.5C8.75 7.83152 8.6183 8.14946 8.38388 8.38388C8.14946 8.6183 7.83152 8.75 7.5 8.75C7.16848 8.75 6.85054 8.6183 6.61612 8.38388C6.3817 8.14946 6.25 7.83152 6.25 7.5C6.25 7.16848 6.3817 6.85054 6.61612 6.61612C6.85054 6.3817 7.16848 6.25 7.5 6.25ZM11.5625 6.25C11.894 6.25 12.212 6.3817 12.4464 6.61612C12.6808 6.85054 12.8125 7.16848 12.8125 7.5C12.8125 7.83152 12.6808 8.14946 12.4464 8.38388C12.212 8.6183 11.894 8.75 11.5625 8.75C11.231 8.75 10.913 8.6183 10.6786 8.38388C10.4442 8.14946 10.3125 7.83152 10.3125 7.5C10.3125 7.16848 10.4442 6.85054 10.6786 6.61612C10.913 6.3817 11.231 6.25 11.5625 6.25ZM3.4375 2.1875C3.76902 2.1875 4.08696 2.3192 4.32138 2.55362C4.5558 2.78804 4.6875 3.10598 4.6875 3.4375C4.6875 3.76902 4.5558 4.08696 4.32138 4.32138C4.08696 4.5558 3.76902 4.6875 3.4375 4.6875C3.10598 4.6875 2.78804 4.5558 2.55362 4.32138C2.3192 4.08696 2.1875 3.76902 2.1875 3.4375C2.1875 3.10598 2.3192 2.78804 2.55362 2.55362C2.78804 2.3192 3.10598 2.1875 3.4375 2.1875ZM7.5 2.1875C7.83152 2.1875 8.14946 2.3192 8.38388 2.55362C8.6183 2.78804 8.75 3.10598 8.75 3.4375C8.75 3.76902 8.6183 4.08696 8.38388 4.32138C8.14946 4.5558 7.83152 4.6875 7.5 4.6875C7.16848 4.6875 6.85054 4.5558 6.61612 4.32138C6.3817 4.08696 6.25 3.76902 6.25 3.4375C6.25 3.10598 6.3817 2.78804 6.61612 2.55362C6.85054 2.3192 7.16848 2.1875 7.5 2.1875ZM11.5625 2.1875C11.894 2.1875 12.212 2.3192 12.4464 2.55362C12.6808 2.78804 12.8125 3.10598 12.8125 3.4375C12.8125 3.76902 12.6808 4.08696 12.4464 4.32138C12.212 4.5558 11.894 4.6875 11.5625 4.6875C11.231 4.6875 10.913 4.5558 10.6786 4.32138C10.4442 4.08696 10.3125 3.76902 10.3125 3.4375C10.3125 3.10598 10.4442 2.78804 10.6786 2.55362C10.913 2.3192 11.231 2.1875 11.5625 2.1875Z" fill="black"/>
</g>
<defs>
<clipPath id="clip0_1296_4266">
<rect width="15" height="15" fill="white"/>
</clipPath>
</defs>
</svg>
