<svg width="15" height="15" viewBox="0 0 15 15" fill="none" xmlns="http://www.w3.org/2000/svg">
<path d="M10.4719 1.25H4.52812C3.80375 1.25 3.44188 1.25 3.14938 1.35188C2.87361 1.44966 2.6241 1.60969 2.42021 1.81954C2.21632 2.02939 2.06355 2.28341 1.97375 2.56187C1.875 2.86312 1.875 3.23562 1.875 3.98125V12.7338C1.875 13.27 2.49062 13.555 2.88 13.1988C2.98924 13.0978 3.13251 13.0418 3.28125 13.0418C3.42999 13.0418 3.57326 13.0978 3.6825 13.1988L3.98438 13.475C4.17575 13.652 4.42683 13.7503 4.6875 13.7503C4.94817 13.7503 5.19925 13.652 5.39062 13.475C5.582 13.298 5.83308 13.1997 6.09375 13.1997C6.35442 13.1997 6.6055 13.298 6.79688 13.475C6.98825 13.652 7.23933 13.7503 7.5 13.7503C7.76067 13.7503 8.01175 13.652 8.20312 13.475C8.3945 13.298 8.64558 13.1997 8.90625 13.1997C9.16692 13.1997 9.418 13.298 9.60938 13.475C9.80075 13.652 10.0518 13.7503 10.3125 13.7503C10.5732 13.7503 10.8242 13.652 11.0156 13.475L11.3175 13.1988C11.4267 13.0978 11.57 13.0418 11.7188 13.0418C11.8675 13.0418 12.0108 13.0978 12.12 13.1988C12.5094 13.555 13.125 13.27 13.125 12.7338V3.98125C13.125 3.23562 13.125 2.8625 13.0262 2.5625C12.9366 2.2839 12.7839 2.02973 12.58 1.81976C12.3761 1.60979 12.1265 1.44968 11.8506 1.35188C11.5581 1.25 11.1962 1.25 10.4719 1.25Z" stroke="black" stroke-width="1.5"/>
<path d="M6.5625 6.875H10.625M4.375 6.875H4.6875M4.375 4.6875H4.6875M4.375 9.0625H4.6875M6.5625 4.6875H10.625M6.5625 9.0625H10.625" stroke="black" stroke-width="1.5" stroke-linecap="round"/>
</svg>
