<svg width="14" height="15" viewBox="0 0 14 15" fill="none" xmlns="http://www.w3.org/2000/svg">
<path d="M13.3998 10.0927L10.0254 8.58049C9.87248 8.51498 9.70567 8.48864 9.54003 8.50386C9.37439 8.51908 9.21516 8.57537 9.07677 8.66764C9.06272 8.67665 9.04935 8.68668 9.03677 8.69764L7.27313 10.1977C7.25483 10.2077 7.23446 10.2133 7.21363 10.214C7.1928 10.2147 7.17209 10.2106 7.15313 10.202C6.01951 9.65482 4.84518 8.48763 4.29588 7.36973C4.28673 7.35105 4.28198 7.33053 4.28198 7.30973C4.28198 7.28893 4.28673 7.26841 4.29588 7.24973L5.80093 5.46395C5.81173 5.45074 5.82175 5.4369 5.83093 5.42252C5.92193 5.28359 5.97689 5.12418 5.99086 4.95869C6.00483 4.79321 5.97736 4.62684 5.91094 4.47463L4.40945 1.10593C4.32419 0.907076 4.17672 0.741236 3.9892 0.633306C3.80167 0.525375 3.5842 0.481175 3.36942 0.50734C2.43597 0.630057 1.57915 1.08846 0.959059 1.79689C0.338971 2.50532 -0.00194841 3.41529 8.377e-06 4.35677C8.377e-06 9.94983 4.55017 14.5 10.1432 14.5C11.0847 14.5018 11.9946 14.1608 12.703 13.5408C13.4114 12.9207 13.8698 12.064 13.9927 11.1306C14.0188 10.9168 13.9752 10.7003 13.8683 10.5133C13.7615 10.3263 13.5972 10.1788 13.3998 10.0927ZM10.1432 13.6428C5.02305 13.6428 0.857182 9.47695 0.857182 4.35677C0.854795 3.62383 1.11934 2.9151 1.60138 2.36299C2.08343 1.81087 2.75001 1.45315 3.47656 1.35666H3.49299C3.52178 1.35719 3.54973 1.36642 3.57318 1.38311C3.59664 1.39981 3.6145 1.42321 3.62443 1.45023L5.13162 4.81535C5.14022 4.83406 5.14467 4.85441 5.14467 4.875C5.14467 4.89559 5.14022 4.91594 5.13162 4.93464L3.62371 6.72471C3.61246 6.73749 3.60219 6.7511 3.593 6.76543C3.49864 6.90947 3.44308 7.07544 3.43169 7.24726C3.4203 7.41909 3.45347 7.59094 3.52799 7.74618C4.16159 9.04337 5.46878 10.3406 6.78025 10.9741C6.9364 11.0483 7.10909 11.0806 7.28148 11.0681C7.45386 11.0556 7.62006 10.9986 7.76386 10.9027C7.77743 10.8934 7.79101 10.8834 7.80386 10.8727L9.56678 9.37266C9.5842 9.36331 9.60342 9.35783 9.62315 9.35659C9.64288 9.35536 9.66264 9.3584 9.68108 9.36552L13.0562 10.8777C13.0838 10.8895 13.1069 10.9096 13.1225 10.9352C13.138 10.9608 13.145 10.9907 13.1426 11.0206C13.0466 11.7475 12.6893 12.4145 12.1373 12.8971C11.5853 13.3797 10.8764 13.6448 10.1432 13.6428Z" fill="#FE2802"/>
</svg>
