<svg width="23" height="22" viewBox="0 0 23 22" fill="none" xmlns="http://www.w3.org/2000/svg">
<path d="M11.4997 3.00016C12.9663 3.00016 14.1663 4.20016 14.1663 5.66683C14.1663 7.1335 12.9663 8.3335 11.4997 8.3335C10.033 8.3335 8.83301 7.1335 8.83301 5.66683C8.83301 4.20016 10.033 3.00016 11.4997 3.00016ZM11.4997 16.3335C15.0997 16.3335 19.233 18.0535 19.4997 19.0002H3.49967C3.80634 18.0402 7.91301 16.3335 11.4997 16.3335ZM11.4997 0.333496C8.55301 0.333496 6.16634 2.72016 6.16634 5.66683C6.16634 8.6135 8.55301 11.0002 11.4997 11.0002C14.4463 11.0002 16.833 8.6135 16.833 5.66683C16.833 2.72016 14.4463 0.333496 11.4997 0.333496ZM11.4997 13.6668C7.93967 13.6668 0.833008 15.4535 0.833008 19.0002V21.6668H22.1663V19.0002C22.1663 15.4535 15.0597 13.6668 11.4997 13.6668Z" fill="#000000"/>
</svg>
