<svg width="15" height="19" viewBox="0 0 15 19" fill="none" xmlns="http://www.w3.org/2000/svg">
<path d="M7.5 0L0 3.33333V8.33333C0 12.9583 3.2 17.2833 7.5 18.3333C11.8 17.2833 15 12.9583 15 8.33333V3.33333L7.5 0ZM7.5 3.33333C8.16304 3.33333 8.79893 3.59673 9.26777 4.06557C9.73661 4.53441 10 5.17029 10 5.83333C10 6.49638 9.73661 7.13226 9.26777 7.6011C8.79893 8.06994 8.16304 8.33333 7.5 8.33333C6.83696 8.33333 6.20107 8.06994 5.73223 7.6011C5.26339 7.13226 5 6.49638 5 5.83333C5 5.17029 5.26339 4.53441 5.73223 4.06557C6.20107 3.59673 6.83696 3.33333 7.5 3.33333ZM11.775 13.3333C10.7653 14.8789 9.25652 16.0318 7.5 16.6C5.74348 16.0318 4.23468 14.8789 3.225 13.3333C2.94167 12.9167 2.7 12.5 2.5 12.0583C2.5 10.6833 4.75833 9.55833 7.5 9.55833C10.2417 9.55833 12.5 10.6583 12.5 12.0583C12.3 12.5 12.0583 12.9167 11.775 13.3333Z" fill="black"/>
</svg>
