<svg width="33" height="32" viewBox="0 0 33 32" fill="none" xmlns="http://www.w3.org/2000/svg">
<g clip-path="url(#clip0_177_4383)">
<path d="M13.167 8.6665V12.6665H9.16699V8.6665H13.167ZM15.167 6.6665H7.16699V14.6665H15.167V6.6665ZM13.167 19.3332V23.3332H9.16699V19.3332H13.167ZM15.167 17.3332H7.16699V25.3332H15.167V17.3332ZM23.8337 8.6665V12.6665H19.8337V8.6665H23.8337ZM25.8337 6.6665H17.8337V14.6665H25.8337V6.6665ZM17.8337 17.3332H19.8337V19.3332H17.8337V17.3332ZM19.8337 19.3332H21.8337V21.3332H19.8337V19.3332ZM21.8337 17.3332H23.8337V19.3332H21.8337V17.3332ZM17.8337 21.3332H19.8337V23.3332H17.8337V21.3332ZM19.8337 23.3332H21.8337V25.3332H19.8337V23.3332ZM21.8337 21.3332H23.8337V23.3332H21.8337V21.3332ZM23.8337 19.3332H25.8337V21.3332H23.8337V19.3332ZM23.8337 23.3332H25.8337V25.3332H23.8337V23.3332ZM29.8337 9.33317H27.167V5.33317H23.167V2.6665H29.8337V9.33317ZM29.8337 29.3332V22.6665H27.167V26.6665H23.167V29.3332H29.8337ZM3.16699 29.3332H9.83366V26.6665H5.83366V22.6665H3.16699V29.3332ZM3.16699 2.6665V9.33317H5.83366V5.33317H9.83366V2.6665H3.16699Z" fill="white"/>
</g>
<defs>
<clipPath id="clip0_177_4383">
<rect width="32" height="32" fill="white" transform="translate(0.5)"/>
</clipPath>
</defs>
</svg>
