<svg width="82" height="100" viewBox="0 0 82 100" fill="none" xmlns="http://www.w3.org/2000/svg">
<path d="M40.9091 0L0 18.1818V45.4545C0 70.6818 17.4545 94.2727 40.9091 100C64.3636 94.2727 81.8182 70.6818 81.8182 45.4545V18.1818L40.9091 0Z" fill="#FE2802" fill-opacity="0.8"/>
<path fill-rule="evenodd" clip-rule="evenodd" d="M61.6824 35.0737C62.2917 35.6832 62.634 36.5097 62.634 37.3715C62.634 38.2333 62.2917 39.0598 61.6824 39.6692L37.3226 64.0291C37.0007 64.3511 36.6185 64.6065 36.1978 64.7807C35.7772 64.955 35.3263 65.0447 34.871 65.0447C34.4157 65.0447 33.9648 64.955 33.5442 64.7807C33.1235 64.6065 32.7413 64.3511 32.4194 64.0291L20.3164 51.9282C20.006 51.6284 19.7584 51.2698 19.5881 50.8733C19.4177 50.4768 19.3281 50.0503 19.3243 49.6188C19.3206 49.1873 19.4028 48.7593 19.5662 48.3599C19.7296 47.9605 19.971 47.5976 20.2761 47.2924C20.5813 46.9873 20.9441 46.746 21.3436 46.5826C21.743 46.4191 22.1709 46.3369 22.6025 46.3407C23.034 46.3444 23.4605 46.4341 23.857 46.6044C24.2535 46.7747 24.6121 47.0223 24.9119 47.3327L34.8699 57.2907L57.0847 35.0737C57.3866 34.7717 57.7449 34.5321 58.1394 34.3687C58.5338 34.2052 58.9566 34.1211 59.3836 34.1211C59.8105 34.1211 60.2333 34.2052 60.6278 34.3687C61.0222 34.5321 61.3806 34.7717 61.6824 35.0737Z" fill="white"/>
</svg>
