<svg width="15" height="15" viewBox="0 0 15 15" fill="none" xmlns="http://www.w3.org/2000/svg">
<path d="M10.8837 6.50875C11.25 6.1425 11.25 5.55375 11.25 4.375C11.25 3.19625 11.25 2.6075 10.8837 2.24125M10.8837 6.50875C10.5175 6.875 9.92875 6.875 8.75 6.875H6.25C5.07125 6.875 4.4825 6.875 4.11625 6.50875M10.8837 2.24125C10.5175 1.875 9.92875 1.875 8.75 1.875H6.25C5.07125 1.875 4.4825 1.875 4.11625 2.24125M4.11625 2.24125C3.75 2.6075 3.75 3.19625 3.75 4.375C3.75 5.55375 3.75 6.1425 4.11625 6.50875M8.125 4.375C8.125 4.54076 8.05915 4.69973 7.94194 4.81694C7.82473 4.93415 7.66576 5 7.5 5C7.33424 5 7.17527 4.93415 7.05806 4.81694C6.94085 4.69973 6.875 4.54076 6.875 4.375C6.875 4.20924 6.94085 4.05027 7.05806 3.93306C7.17527 3.81585 7.33424 3.75 7.5 3.75C7.66576 3.75 7.82473 3.81585 7.94194 3.93306C8.05915 4.05027 8.125 4.20924 8.125 4.375Z" stroke="black" stroke-width="1.5"/>
<path d="M11.25 3.75C10.7527 3.75 10.2758 3.55246 9.92417 3.20083C9.57254 2.84919 9.375 2.37228 9.375 1.875M11.25 5C10.7527 5 10.2758 5.19754 9.92417 5.54917C9.57254 5.90081 9.375 6.37772 9.375 6.875M3.75 3.75C4.24728 3.75 4.72419 3.55246 5.07583 3.20083C5.42746 2.84919 5.625 2.37228 5.625 1.875M3.75 5C4.24728 5 4.72419 5.19754 5.07583 5.54917C5.42746 5.90081 5.625 6.37772 5.625 6.875M2.5 13.3675H3.9125C4.54375 13.3675 5.18313 13.4337 5.7975 13.56C6.89438 13.7853 8.02298 13.8103 9.12875 13.6337M8.5475 11.5731C8.6225 11.5644 8.69437 11.5544 8.76312 11.5437C9.3325 11.4531 9.81062 11.1481 10.2481 10.8175L11.3781 9.96437C11.5797 9.81774 11.8226 9.73875 12.0719 9.73875C12.3212 9.73875 12.564 9.81774 12.7656 9.96437C13.1237 10.235 13.2338 10.6806 13.0069 11.0444C12.7425 11.4681 12.37 12.01 12.0125 12.3413M8.5475 11.5731C8.5246 11.5758 8.50168 11.5783 8.47875 11.5806M8.5475 11.5731C8.64754 11.5461 8.73926 11.4945 8.81437 11.4231C8.90856 11.3416 8.98546 11.2421 9.04056 11.1305C9.09565 11.0188 9.12782 10.8972 9.13516 10.7729C9.1425 10.6485 9.12486 10.524 9.08329 10.4066C9.04172 10.2892 8.97706 10.1814 8.89313 10.0894C8.81168 9.99896 8.71682 9.9216 8.61188 9.86C6.86375 8.81687 4.14312 9.61125 2.5 10.7769M8.5475 11.5731C8.52491 11.578 8.50187 11.5806 8.47875 11.5806M8.47875 11.5806C8.10182 11.6185 7.72209 11.6193 7.345 11.5831" stroke="black" stroke-width="1.5" stroke-linecap="round"/>
</svg>
