<svg width="25" height="24" viewBox="0 0 25 24" fill="none" xmlns="http://www.w3.org/2000/svg">
<g clip-path="url(#clip0_290_1014)">
<path d="M7.51919 8.00019C7.51922 7.75526 7.60914 7.51885 7.7719 7.33582C7.93466 7.15278 8.15893 7.03585 8.40218 7.00719L8.51919 7.00019L18.1402 7.00019L16.3122 5.17219C16.1309 4.99265 16.0252 4.75062 16.0165 4.49564C16.0079 4.24067 16.097 3.99202 16.2657 3.80061C16.4343 3.6092 16.6698 3.48949 16.9238 3.46599C17.1778 3.44248 17.4313 3.51697 17.6322 3.67419L17.7262 3.75819L21.2622 7.29319C21.4344 7.46538 21.5378 7.69448 21.5531 7.93751C21.5684 8.18054 21.4944 8.42079 21.3452 8.61319L21.2622 8.70719L17.7262 12.2432C17.5462 12.4225 17.3048 12.5267 17.0508 12.5344C16.7969 12.5422 16.5495 12.453 16.3589 12.2849C16.1683 12.1169 16.0489 11.8826 16.0248 11.6297C16.0007 11.3768 16.0738 11.1242 16.2292 10.9232L16.3122 10.8282L18.1392 9.00019L8.51919 9.00019C8.25397 9.00019 7.99961 8.89483 7.81208 8.7073C7.62454 8.51976 7.51919 8.26541 7.51919 8.00019ZM3.77618 15.2932L7.31219 11.7582C7.40443 11.6627 7.51478 11.5865 7.63678 11.5341C7.75878 11.4817 7.89 11.4541 8.02278 11.4529C8.15556 11.4518 8.28724 11.4771 8.41014 11.5274C8.53304 11.5777 8.64469 11.6519 8.73858 11.7458C8.83247 11.8397 8.90673 11.9513 8.95701 12.0742C9.00729 12.1971 9.03259 12.3288 9.03144 12.4616C9.03028 12.5944 9.0027 12.7256 8.95029 12.8476C8.89788 12.9696 8.82169 13.0799 8.72618 13.1722L6.89819 15.0002H16.5182C16.7834 15.0002 17.0378 15.1055 17.2253 15.2931C17.4128 15.4806 17.5182 15.735 17.5182 16.0002C17.5182 16.2654 17.4128 16.5198 17.2253 16.7073C17.0378 16.8948 16.7834 17.0002 16.5182 17.0002H6.89918L8.72618 18.8302C8.90834 19.0188 9.00914 19.2714 9.00686 19.5336C9.00458 19.7958 8.89941 20.0466 8.714 20.232C8.5286 20.4174 8.27778 20.5226 8.01559 20.5249C7.75339 20.5271 7.50079 20.4263 7.31219 20.2442L3.77618 16.7082C3.58871 16.5207 3.4834 16.2664 3.4834 16.0012C3.4834 15.736 3.58871 15.4807 3.77618 15.2932Z" fill="#FE2802"/>
</g>
<defs>
<clipPath id="clip0_290_1014">
<rect width="24" height="24" fill="white" transform="matrix(0 -1 1 0 0.519531 24)"/>
</clipPath>
</defs>
</svg>
