<svg width="126" height="126" viewBox="0 0 126 126" fill="none" xmlns="http://www.w3.org/2000/svg">
<path d="M123 95.3077V113.769C123 116.217 122.027 118.565 120.296 120.296C118.565 122.027 116.217 123 113.769 123H95.3077M95.3077 3H113.769C116.217 3 118.565 3.97252 120.296 5.70363C122.027 7.43473 123 9.78262 123 12.2308V30.6923M3 30.6923V12.2308C3 9.78262 3.97252 7.43473 5.70363 5.70363C7.43473 3.97252 9.78262 3 12.2308 3H30.6923M30.6923 123H12.2308C9.78262 123 7.43473 122.027 5.70363 120.296C3.97252 118.565 3 116.217 3 113.769V95.3077" stroke="#FE2802" stroke-opacity="0.6" stroke-width="5" stroke-linecap="round" stroke-linejoin="round"/>
<path d="M63.0006 58.385C73.1966 58.385 81.4621 50.1195 81.4621 39.9235C81.4621 29.7274 73.1966 21.4619 63.0006 21.4619C52.8046 21.4619 44.5391 29.7274 44.5391 39.9235C44.5391 50.1195 52.8046 58.385 63.0006 58.385Z" stroke="#FE2802" stroke-opacity="0.6" stroke-width="5" stroke-linecap="round" stroke-linejoin="round"/>
<path d="M92.1666 95.3089C89.5416 89.7965 85.4084 85.1408 80.2458 81.8812C75.0833 78.6216 69.1028 76.8916 62.9974 76.8916C56.8919 76.8916 50.9114 78.6216 45.7489 81.8812C40.5863 85.1408 36.4531 89.7965 33.8281 95.3089" stroke="#FE2802" stroke-opacity="0.6" stroke-width="5" stroke-linecap="round" stroke-linejoin="round"/>
</svg>
