<svg width="32" height="32" viewBox="0 0 32 32" fill="none" xmlns="http://www.w3.org/2000/svg">
<g clip-path="url(#clip0_177_4379)">
<path d="M28 9.70667V6.66667C28 5.2 26.8 4 25.3333 4H6.66667C5.18667 4 4 5.2 4 6.66667V25.3333C4 26.8 5.18667 28 6.66667 28H25.3333C26.8 28 28 26.8 28 25.3333V22.2933C28.7867 21.8267 29.3333 20.9867 29.3333 20V12C29.3333 11.0133 28.7867 10.1733 28 9.70667ZM26.6667 12V20H17.3333V12H26.6667ZM6.66667 25.3333V6.66667H25.3333V9.33333H17.3333C15.8667 9.33333 14.6667 10.5333 14.6667 12V20C14.6667 21.4667 15.8667 22.6667 17.3333 22.6667H25.3333V25.3333H6.66667Z" fill="#000000"/>
<path d="M21.333 18C22.4376 18 23.333 17.1046 23.333 16C23.333 14.8954 22.4376 14 21.333 14C20.2284 14 19.333 14.8954 19.333 16C19.333 17.1046 20.2284 18 21.333 18Z" fill="#000000"/>
</g>
<defs>
<clipPath id="clip0_177_4379">
<rect width="32" height="32" fill="white"/>
</clipPath>
</defs>
</svg>
